<?xml version="1.0" standalone="no"?>
<!DOCTYPE svg PUBLIC "-//W3C//DTD SVG 20010904//EN"
 "http://www.w3.org/TR/2001/REC-SVG-20010904/DTD/svg10.dtd">
<svg version="1.0" xmlns="http://www.w3.org/2000/svg"
 width="40.000000pt" height="40.000000pt" viewBox="0 0 40.000000 40.000000"
 preserveAspectRatio="xMidYMid meet">

<g transform="translate(0.000000,40.000000) scale(0.100000,-0.100000)"
fill="#000000" stroke="none">
<path d="M35 366 c-24 -24 -25 -29 -25 -166 0 -137 1 -142 25 -166 22 -22 32
-25 82 -22 40 2 59 8 67 21 18 28 -4 52 -53 55 l-41 3 0 109 0 109 41 3 c49 3
71 27 53 56 -8 12 -27 18 -67 20 -50 3 -60 0 -82 -22z"/>
<path d="M237 313 c-12 -11 -8 -51 6 -60 7 -5 -14 -10 -52 -13 -71 -6 -96 -25
-75 -58 8 -12 27 -18 73 -20 52 -2 61 -5 51 -17 -19 -23 -8 -60 19 -63 18 -3
37 10 77 49 30 29 54 60 54 69 0 23 -102 120 -126 120 -11 0 -24 -3 -27 -7z"/>
</g>
</svg>
