<?xml version="1.0" encoding="UTF-8"?>
<svg xmlns="http://www.w3.org/2000/svg" xmlns:xlink="http://www.w3.org/1999/xlink" width="40px" height="40px" viewBox="0 0 40 40" version="1.1">
<g id="surface1">
<path style=" stroke:none;fill-rule:nonzero;fill:rgb(0%,0%,0%);fill-opacity:1;" d="M 38.460938 18.460938 L 5.253906 18.460938 L 21.085938 2.625 C 21.679688 2.023438 21.679688 1.054688 21.085938 0.453125 C 20.484375 -0.144531 19.515625 -0.144531 18.914062 0.453125 L 0.453125 18.914062 C 0.382812 18.988281 0.316406 19.066406 0.261719 19.152344 C 0.238281 19.179688 0.214844 19.203125 0.191406 19.230469 C 0.191406 19.285156 0.136719 19.332031 0.117188 19.382812 L 0.0703125 19.539062 C 0.0664062 19.582031 0.0664062 19.625 0.0703125 19.667969 C 0.03125 19.867188 0.03125 20.070312 0.0703125 20.269531 C 0.0664062 20.3125 0.0664062 20.355469 0.0703125 20.398438 L 0.117188 20.554688 C 0.117188 20.609375 0.167969 20.652344 0.191406 20.707031 C 0.210938 20.746094 0.234375 20.785156 0.261719 20.824219 C 0.316406 20.910156 0.382812 20.988281 0.453125 21.0625 L 18.914062 39.523438 C 19.292969 39.960938 19.882812 40.152344 20.445312 40.019531 C 21.003906 39.882812 21.445312 39.445312 21.578125 38.882812 C 21.714844 38.320312 21.523438 37.730469 21.085938 37.355469 L 5.253906 21.539062 L 38.460938 21.539062 C 39.3125 21.539062 40 20.851562 40 20 C 40 19.148438 39.3125 18.460938 38.460938 18.460938 Z M 38.460938 18.460938 "/>
</g>
</svg>
