<?xml version="1.0" encoding="UTF-8"?>
<svg xmlns="http://www.w3.org/2000/svg" xmlns:xlink="http://www.w3.org/1999/xlink" width="21px" height="21px" viewBox="0 0 21 21" version="1.1">
<g id="surface1">
<path style=" stroke:none;fill-rule:nonzero;fill:rgb(0%,0%,0%);fill-opacity:1;" d="M 5.183594 18.003906 C 5.953125 18.648438 6.867188 19.101562 7.84375 19.324219 C 7.9375 19.355469 8 19.234375 7.9375 19.171875 C 5.84375 17.171875 6.992188 15.007812 7.84375 14.03125 C 8.449219 13.335938 9.3125 12.1875 9.25 10.652344 C 9.25 10.496094 9.410156 10.375 9.53125 10.464844 C 10.722656 11.082031 11.535156 12.433594 11.753906 13.542969 C 12.097656 13.203125 12.222656 12.679688 12.222656 12.21875 C 12.222656 12.066406 12.410156 11.941406 12.566406 12.066406 C 13.695312 13.082031 15.632812 16.523438 12.503906 19.230469 C 12.441406 19.292969 12.503906 19.417969 12.566406 19.386719 C 13.515625 19.136719 14.40625 18.710938 15.195312 18.125 C 20.292969 14.1875 16.976562 7.203125 14.820312 4.898438 C 14.539062 4.621094 14.039062 4.804688 14.039062 5.207031 C 14.007812 6.035156 13.757812 6.957031 13.101562 7.574219 C 12.597656 5.484375 10.929688 3.105469 8.554688 1.9375 C 8.242188 1.785156 7.867188 2.03125 7.898438 2.367188 C 7.960938 5.230469 6.09375 7.050781 4.464844 9.421875 C 3.027344 11.542969 2.089844 15.449219 5.183594 18.003906 Z M 5.183594 18.003906 "/>
</g>
</svg>
