<?xml version="1.0" encoding="UTF-8"?>
<svg xmlns="http://www.w3.org/2000/svg" xmlns:xlink="http://www.w3.org/1999/xlink" width="40px" height="40px" viewBox="0 0 40 40" version="1.1">
<g id="surface1">
<path style=" stroke:none;fill-rule:evenodd;fill:rgb(0%,0%,0%);fill-opacity:1;" d="M 35.492188 20 C 35.492188 19.128906 35.410156 18.238281 35.246094 17.351562 L 39.625 13.554688 L 35.472656 6.453125 L 29.945312 8.296875 C 28.550781 7.140625 26.960938 6.226562 25.285156 5.621094 L 24.144531 0 L 15.855469 0 L 14.71875 5.617188 C 13.023438 6.226562 11.460938 7.125 10.050781 8.292969 L 4.53125 6.453125 L 0.375 13.554688 L 4.753906 17.351562 C 4.589844 18.238281 4.511719 19.128906 4.511719 20 C 4.511719 20.871094 4.589844 21.761719 4.753906 22.648438 L 0.375 26.445312 L 4.53125 33.546875 L 10.054688 31.703125 C 11.449219 32.859375 13.039062 33.773438 14.71875 34.378906 L 15.855469 40 L 24.144531 40 L 25.285156 34.382812 C 26.976562 33.773438 28.542969 32.875 29.949219 31.707031 L 35.472656 33.546875 L 39.625 26.445312 L 35.246094 22.652344 C 35.410156 21.761719 35.492188 20.871094 35.492188 20 M 20 28.234375 C 15.460938 28.234375 11.765625 24.542969 11.765625 20 C 11.765625 15.457031 15.460938 11.765625 20 11.765625 C 24.542969 11.765625 28.234375 15.457031 28.234375 20 C 28.234375 24.542969 24.542969 28.234375 20 28.234375 "/>
</g>
</svg>
